<?xml version="1.0" encoding="UTF-8"?>
<svg xmlns="http://www.w3.org/2000/svg" width="168.9" height="168.58" viewBox="0 0 168.9 168.58">
  <g>
    <g>
      <path d="M15.21,148.02h3.86l3.16,6.36,1.36,3.2h.09c-.18-1.54-.48-3.68-.48-5.44v-4.12h3.6v14.25h-3.86l-3.16-6.38-1.36-3.18h-.09c.18,1.62,.48,3.68,.48,5.44v4.12h-3.6v-14.25Z" style="fill: #95c11f;"/>
      <path d="M37.18,148.02h3.77v14.25h-3.77v-14.25Z" style="fill: #95c11f;"/>
      <path d="M51.34,148.02h3.86l3.16,6.36,1.36,3.2h.09c-.18-1.54-.48-3.68-.48-5.44v-4.12h3.6v14.25h-3.86l-3.16-6.38-1.36-3.18h-.09c.18,1.62,.48,3.68,.48,5.44v4.12h-3.6v-14.25Z" style="fill: #95c11f;"/>
      <path d="M71.95,159.84l2.54-1.91c.48,.92,1.18,1.36,1.8,1.36,1.01,0,1.58-.48,1.58-2.28v-8.99h3.77v9.3c0,2.85-1.54,5.22-4.82,5.22-2.32,0-3.81-.88-4.87-2.7Z" style="fill: #95c11f;"/>
      <path d="M94.48,148.02h4.56l4.34,14.25h-3.99l-1.62-6.93c-.35-1.36-.7-3.09-1.05-4.52h-.09c-.31,1.45-.66,3.16-1.01,4.52l-1.62,6.93h-3.86l4.34-14.25Zm-1.23,8.31h6.97v2.92h-6.97v-2.92Z" style="fill: #95c11f;"/>
    </g>
    <g>
      <path d="M155.27,155.14c0,6.84,0,12.38-23.85,12.38s-23.85-5.54-23.85-12.38,0-12.38,23.85-12.38,23.85,5.54,23.85,12.38Z" style="fill: #95c11f;"/>
      <g>
        <path d="M113.26,155.25c0-4.78,3.29-7.49,6.88-7.49,1.88,0,3.42,.88,4.43,1.88l-1.97,2.41c-.7-.61-1.4-1.05-2.37-1.05-1.67,0-3.11,1.53-3.11,4.12s1.23,4.16,3.07,4.16c1.1,0,1.97-.57,2.59-1.23l1.97,2.37c-1.21,1.4-2.85,2.1-4.69,2.1-3.64,0-6.79-2.41-6.79-7.28Z" style="fill: #fff;"/>
        <path d="M129.57,148.02h3.77v11.09h5.39v3.16h-9.16v-14.24Z" style="fill: #fff;"/>
        <path d="M144.03,148.02h3.77v14.24h-3.77v-14.24Z" style="fill: #fff;"/>
      </g>
    </g>
  </g>
  <g>
    <path d="M168.9,66.86c0,36.92,0,66.86-84.45,66.86S0,103.78,0,66.86,0,0,84.45,0s84.45,29.93,84.45,66.86Z" style="fill: #2e2d2c;"/>
    <path d="M10.9,81.31c.25,6.58,.86,12.8,2.34,18.49,.89,3.45,3.68,5.81,6.83,5.81H148.84c3.15,0,5.93-2.36,6.83-5.81,1.47-5.69,2.09-11.91,2.34-18.49,.18-4.65-3.05-8.54-7.12-8.54H18.01c-4.06,0-7.3,3.89-7.12,8.54Z" style="fill: #95c11f;"/>
    <path d="M30.4,84.76c-1.27,4.5,5.62,8.62,15.37,9.2,6.17,.37,12.01-.77,15.79-2.79,1.7-.91,1.18-3.46-.75-3.62-10.73-.9-20.26-2.61-27.69-4.81-.83-.25-1.73,.08-2.19,.81-.24,.39-.43,.8-.54,1.21Z" style="fill: #2e2d2c;"/>
    <path d="M138.5,84.76c1.27,4.5-5.62,8.62-15.37,9.2-6.17,.37-12.01-.77-15.79-2.79-1.7-.91-1.18-3.46,.75-3.62,10.73-.9,20.26-2.61,27.69-4.81,.83-.25,1.73,.08,2.19,.81,.24,.39,.43,.8,.54,1.21Z" style="fill: #2e2d2c;"/>
  </g>
</svg>